HIERARCHY
ROOT ui
{
	 OFFSET 0 0 0
	 CHANNELS 3 XPosition YPosition Z Position
	 EndSite
	 {
	 OFFSET 0 -1 0
	 }
}
ROOT li
{
	 OFFSET 0 0 0
	 CHANNELS 3 XPosition YPosition Z Position
	 EndSite
	 {
	 OFFSET 0 -1 0
	 }
}
ROOT ul
{
	 OFFSET 0 0 0
	 CHANNELS 3 XPosition YPosition Z Position
	 EndSite
	 {
	 OFFSET 0 -1 0
	 }
}
ROOT ll
{
	 OFFSET 0 0 0
	 CHANNELS 3 XPosition YPosition Z Position
	 EndSite
	 {
	 OFFSET 0 -1 0
	 }
}
ROOT tt
{
	 OFFSET 0 0 0
	 CHANNELS 3 XPosition YPosition Z Position
	 EndSite
	 {
	 OFFSET 0 -1 0
	 }
}
ROOT tb
{
	 OFFSET 0 0 0
	 CHANNELS 3 XPosition YPosition Z Position
	 EndSite
	 {
	 OFFSET 0 -1 0
	 }
}
ROOT td
{
	 OFFSET 0 0 0
	 CHANNELS 3 XPosition YPosition Z Position
	 EndSite
	 {
	 OFFSET 0 -1 0
	 }
}
ROOT v
{
	 OFFSET 0 0 0
	 CHANNELS 3 XPosition YPosition Z Position
	 EndSite
	 {
	 OFFSET 0 -1 0
	 }
}
ROOT bn
{
	 OFFSET 0 0 0
	 CHANNELS 3 XPosition YPosition Z Position
	 EndSite
	 {
	 OFFSET 0 -1 0
	 }
}
MOTION
Frames: 24
Frame Time: 0.002
-9.019349813461304E-4	2.817299962043762E-5	0		0.39420974731445313	-2.35346435546875	0		-1.1200594482421875	-0.038784027099609375	0		-0.869032958984375	-2.350021728515625	0		1.4674429931640625	-0.534166748046875	0		3.035800537109375	0.17470161437988282	0		4.4964208984375	0.18581881713867188	0		5.6024248046875	-0.004130815982818604	0		-0.056890548706054686	5.9527978515625	0		
-0.0048130531311035155	-0.0026196138858795167	0		0.3903608703613281	-2.358093505859375	0		-1.050032470703125	-0.04514500045776367	0		-0.7979683227539063	-2.35939306640625	0		1.464533447265625	-0.5377698974609375	0		3.01657080078125	0.15853268432617187	0		4.48830029296875	0.17446797180175783	0		5.57365478515625	3.676899895071983E-5	0		-0.05798361206054688	5.9540791015625	0		
2.1802300214767456E-4	-0.0074738750457763676	0		0.388568603515625	-2.359773681640625	0		-1.123844970703125	-0.04227706527709961	0		-0.8705632934570312	-2.351537109375	0		1.464702392578125	-0.5374461669921875	0		3.02081884765625	0.16383639526367189	0		4.4822587890625	0.16706643676757812	0		5.59379443359375	9.980700165033341E-5	0		-0.07335424041748047	5.94367236328125	0		
-0.0045359740257263186	-0.0021147279739379883	0		0.39289508056640626	-2.35559814453125	0		-1.04975146484375	-0.04473457717895508	0		-0.8703257446289062	-2.35132763671875	0		1.44488623046875	-0.5356848754882813	0		3.0328291015625	0.15895257568359375	0		4.48651708984375	0.17342417907714844	0		5.57970654296875	-0.009085951805114746	0		-0.05726750946044922	5.95355712890625	0		
-3.4942999482154844E-4	0.0010326110124588013	0		0.3682337036132812	-2.34978662109375	0		-1.1154339599609375	-0.03506943511962891	0		-0.8551982421875	-2.355461181640625	0		1.4680908203125	-0.5329002685546875	0		3.027368896484375	0.17844859313964845	0		4.4928076171875	0.181716796875	0		5.588205078125	0.008206280708312988	0		-0.1756167755126953	5.9454306640625	0		
0.004668623924255371	-0.0028529899120330812	0		0.3953841247558594	-2.352148681640625	0		-1.04136474609375	-0.037538478851318356	0		-0.8678593139648437	-2.348981689453125	0		1.4482254638671874	-0.5321712036132813	0		3.041998291015625	0.15746432495117188	0		4.49290869140625	0.182119873046875	0		5.5883134765625	0.00865280246734619	0		-0.05850556945800781	5.95503662109375	0		
-0.004209919929504395	-0.0014420490264892578	0		0.3935002136230469	-2.35487841796875	0		-1.1233797607421876	-0.04153882598876953	0		-0.8327969970703125	-2.35458056640625	0		1.48522119140625	-0.5377302856445313	0		3.04035693359375	0.16982713317871093	0		4.4929990234375	0.182493896484375	0		5.59425244140625	0.001934823989868164	0		-0.057647720336914066	5.95422314453125	0		
-0.004124440193176269	-0.001246891975402832	0		0.3895751953125	-2.358580322265625	0		-1.04933349609375	-0.04402507781982422	0		-0.8695582885742188	-2.3505908203125	0		1.445378662109375	-0.5345974731445312	0		3.03321630859375	0.16028053283691407	0		4.49307861328125	0.18283702087402343	0		5.594337890625	0.0023141820430755615	0		-0.05873572158813477	5.9554384765625	0		
8.379650115966796E-4	-0.006177538871765136	0		0.33888677978515624	-2.35025927734375	0		-1.1232171630859376	-0.041234130859375	0		-0.85859521484375	-2.35867919921875	0		1.46852978515625	-0.5318872680664063	0		3.032552734375	0.17256777954101563	0		4.49796875	0.17503872680664062	0		5.59441259765625	0.002657138109207153	0		-0.04361713409423828	5.96528076171875	0		
0.004990616798400879	-0.002104032039642334	0		0.3980408630371094	-2.349396240234375	0		-1.0991351318359375	-0.04063177871704102	0		-0.8523391723632813	-2.35267236328125	0		1.451700927734375	-0.5273109741210937	0		3.05438623046875	0.16232229614257812	0		4.495318359375	0.1883789825439453	0		5.60918505859375	-0.010367592811584473	0		-0.04174806976318359	5.96339892578125	0		
1.3644599914550782E-4	0.002153712034225464	0		0.39610198974609373	-2.3511953125	0		-1.0409818115234375	-0.03679288864135742	0		-0.794292724609375	-2.35582666015625	0		1.4886480712890624	-0.5329512329101562	0		3.036775390625	0.17792892456054688	0		4.4973916015625	0.1895760498046875	0		5.59868701171875	0.010136020660400391	0		-0.17622665405273438	5.94651904296875	0		
0.005094175815582276	-0.0018221559524536134	0		0.3920776062011719	-2.35596533203125	0		-1.12304638671875	-0.040859161376953126	0		-0.8691004028320313	-2.35004638671875	0		1.448736083984375	-0.5309083251953125	0		3.0024521484375	0.16186833190917968	0		4.4933046875	0.18387216186523436	0		5.598734375	0.01035980224609375	0		-0.07427751922607422	5.94539208984375	0		
-0.003842534065246582	-5.020059943199158E-4	0		0.3921431274414062	-2.355839599609375	0		-1.0490472412109375	-0.04338760375976562	0		-0.7982293090820313	-2.35950390625	0		1.482595703125	-0.5395210571289063	0		3.033481689453125	0.16133755493164062	0		4.48920947265625	0.178134033203125	0		5.59461962890625	0.0036343998908996583	0		-0.0743056640625	5.9455126953125	0		
-0.0038126249313354494	-3.919070065021515E-4	0		0.39218902587890625	-2.355726806640625	0		-1.122976806640625	-0.04064812088012695	0		-0.858168701171875	-2.358072021484375	0		1.448814453125	-0.5306507568359375	0		3.0376201171875	0.1663785858154297	0		4.48237255859375	0.18442802429199218	0		5.5888056640625	0.01091352939605713	0		-0.07333850860595703	5.94460009765625	0		
2.734470069408417E-4	0.0026195590496063234	0		0.39632583618164063	-2.35071484375	0		-1.1148031005859376	-0.033729183197021485	0		-0.8191731567382813	-2.3598359375	0		1.468831787109375	-0.5309884033203125	0		3.023820556640625	0.17479530334472657	0		4.4865244140625	0.19045112609863282	0		5.58462841796875	0.002120275020599365	0		-0.17630900573730468	5.946978515625	0		
2.8527799248695375E-4	0.002712301015853882	0		0.39633639526367187	-2.350622314453125	0		-1.118856689453125	-0.036546646118164064	0		-0.8669075927734375	-2.347683837890625	0		1.46884326171875	-0.530896484375	0		3.0306318359375	0.1657338104248047	0		4.49753369140625	0.19029818725585937	0		5.588837890625	0.011119364738464355	0		-0.058079586029052735	5.955458984375	0		
0.005199048042297363	-0.0013113369941711425	0		0.39222393798828126	-2.35544775390625	0		-1.0489810791015626	-0.04300472640991211	0		-0.796104736328125	-2.3571640625	0		1.4857305908203124	-0.536189208984375	0		3.056761962890625	0.17123509216308594	0		4.49340625	0.18446200561523438	0		5.59468505859375	0.004059304237365722	0		-0.05806010055541992	5.955544921875	0		
-0.0037812891006469727	-3.246000036597252E-5	0		0.390167236328125	-2.35732421875	0		-1.1229456787109375	-0.04028421401977539	0		-0.871032958984375	-2.3524228515625	0		1.462663330078125	-0.5386048583984375	0		3.01754638671875	0.16216958618164062	0		4.49340185546875	0.1845262451171875	0		5.5946806640625	0.0041196770668029785	0		-0.05902145004272461	5.9566474609375	0		
-0.0037940239906311037	4.240800067782402E-5	0		0.3921910095214844	-2.35529541015625	0		-1.117070556640625	-0.04533744049072266	0		-0.858166748046875	-2.357631591796875	0		1.448829345703125	-0.5302266845703125	0		3.0286640625	0.16799034118652345	0		4.4913681640625	0.18363180541992188	0		5.5846259765625	0.002399101972579956	0		-0.05803827667236328	5.9557001953125	0		
0.005161050796508789	-0.0010860079526901244	0		0.3713711853027344	-2.345762939453125	0		-1.104850830078125	-0.034533504486083985	0		-0.8541033325195313	-2.3536494140625	0		1.451895751953125	-0.5262257690429688	0		3.050439208984375	0.15857168579101563	0		4.4803505859375	0.18393894958496093	0		5.5945810546875	0.0012401829957962036	0		-0.04185472106933594	5.96441455078125	0		
2.2273099422454834E-4	0.0030905749797821044	0		0.3962508544921875	-2.350247802734375	0		-1.0449598388671875	-0.03879448318481445	0		-0.7941437377929688	-2.354910888671875	0		1.4687755126953126	-0.5305325317382813	0		3.03685693359375	0.17894654846191407	0		4.49747314453125	0.19063253784179687	0		5.60355078125	0.0011136109828948975	0		-0.04384402847290039	5.966525390625	0		
1.8741700053215028E-4	0.003154660940170288	0		0.3941595764160156	-2.35313720703125	0		-1.123042236328125	-0.04000860214233398	0		-0.8321376953125	-2.353009765625	0		1.4625670166015625	-0.5383275756835938	0		3.002453125	0.16277969360351563	0		4.49330517578125	0.18480551147460939	0		5.594583984375	0.0043996419906616215	0		-0.05814435577392578	5.95590185546875	0		
-0.003920557975769043	3.053619861602783E-4	0		0.41697512817382815	-2.360579345703125	0		-1.049124755859375	-0.04259209442138672	0		-0.787460205078125	-2.36694677734375	0		1.4625286865234375	-0.5382545166015625	0		3.03340185546875	0.16217938232421875	0		4.48912939453125	0.17899237060546874	0		5.5845439453125	0.004726408958435058	0		-0.07347349548339843	5.94529736328125	0		
9.179159998893738E-4	-0.004745175838470459	0		0.3651208190917969	-2.3523681640625	0		-1.1231339111328125	-0.03991049957275391	0		-0.8582877197265625	-2.357330078125	0		1.4655728759765625	-0.5342456665039063	0		3.03335009765625	0.16227421569824219	0		4.493208984375	0.1850146484375	0		5.59449169921875	0.004630559921264648	0		-0.0583544921875	5.95602099609375	0		
